<?xml version="1.0" encoding="utf-8"?>
<!-- Svg Vector Icons : http://www.onlinewebfonts.com/icon -->
<!DOCTYPE svg PUBLIC "-//W3C//DTD SVG 1.1//EN" "http://www.w3.org/Graphics/SVG/1.1/DTD/svg11.dtd">
<svg version="1.1" xmlns="http://www.w3.org/2000/svg" xmlns:xlink="http://www.w3.org/1999/xlink" x="0px" y="0px" viewBox="0 0 1000 1000" enable-background="new 0 0 1000 1000" xml:space="preserve">
<metadata> Svg Vector Icons : http://www.onlinewebfonts.com/icon </metadata>
<g><path d="M682,94c14-21,38.5-28,63-17.5c21,14,28,42,17.5,63l-91,157.5c-14,21-38.5,28-63,17.5c-21-14-28-42-17.5-63L682,94z"/><path d="M864,237.5c21-10.5,49-3.5,59.5,17.5c14,21,3.5,49-17.5,63l-157.5,91c-21,14-49,7-63-17.5c-14-21-3.5-49,17.5-63L864,237.5z"/><path d="M944.5,454.5c24.5,0,45.5,21,45.5,45.5c0,24.5-21,45.5-45.5,45.5h-182c-24.5,0-45.5-21-45.5-45.5c0-24.5,21-45.5,45.5-45.5H944.5z"/><path d="M906,682c21,14,28,38.5,17.5,63c-14,21-42,28-63,17.5l-157.5-91c-21-14-28-38.5-17.5-63c14-21,42-28,63-17.5L906,682z"/><path d="M762.5,864c14,21,7,49-17.5,63c-21,14-49,3.5-63-17.5L591,752c-14-21-7-49,17.5-63c21-14,49-3.5,63,17.5L762.5,864z"/><path d="M545.5,944.5c0,24.5-21,45.5-45.5,45.5c-24.5,0-45.5-21-45.5-45.5v-182c0-24.5,21-45.5,45.5-45.5c24.5,0,45.5,21,45.5,45.5V944.5z"/><path d="M318,906c-14,21-38.5,28-63,17.5c-21-14-28-42-17.5-63l91-157.5c14-21,38.5-28,63-17.5c21,14,28,42,17.5,63L318,906z"/><path d="M139.5,762.5C115,773,87,766,76.5,745c-14-21-3.5-49,17.5-63l157.5-91c21-14,49-7,63,17.5c14,21,3.5,49-17.5,63L139.5,762.5z"/><path d="M55.5,545.5C31,545.5,10,524.5,10,500c0-24.5,21-45.5,45.5-45.5h182c24.5,0,45.5,21,45.5,45.5c0,24.5-21,45.5-45.5,45.5H55.5z"/><path d="M94,318c-24.5-14-31.5-42-17.5-63c10.5-21,38.5-28,63-17.5l157.5,91c21,14,28,38.5,17.5,63c-14,21-42,28-63,17.5L94,318z"/><path d="M237.5,139.5C227,115,234,87,255,76.5c21-14,49-3.5,63,17.5l91,157.5c14,21,7,49-17.5,63c-21,14-49,3.5-63-17.5L237.5,139.5z"/><path d="M454.5,55.5c0-24.5,21-45.5,45.5-45.5c24.5,0,45.5,21,45.5,45.5v182c0,24.5-21,45.5-45.5,45.5c-24.5,0-45.5-21-45.5-45.5V55.5z"/></g>
</svg>